<?xml version="1.0" standalone="no"?>
<!DOCTYPE svg PUBLIC "-//W3C//DTD SVG 20010904//EN"
 "http://www.w3.org/TR/2001/REC-SVG-20010904/DTD/svg10.dtd">
<svg version="1.0" xmlns="http://www.w3.org/2000/svg"
 width="540.000000pt" height="720.000000pt" viewBox="0 0 540.000000 720.000000"
 preserveAspectRatio="xMidYMid meet">
<metadata>
Created by potrace 1.16, written by Peter Selinger 2001-2019
</metadata>
<g transform="translate(0.000000,720.000000) scale(0.100000,-0.100000)"
fill="#000000" stroke="none">
<path d="M2780 6735 c-70 -32 -73 -35 -50 -44 18 -7 20 -10 8 -10 -10 -1 -18
-5 -18 -9 0 -5 13 -7 29 -4 16 2 66 -8 112 -22 62 -20 85 -23 90 -14 4 7 5 17
1 23 -8 12 -3 46 8 60 12 14 1 28 -33 43 -42 18 -65 15 -147 -23z"/>
<path d="M2458 6630 c-27 -16 -48 -35 -48 -40 0 -6 -7 -10 -15 -10 -8 0 -19
-9 -25 -20 -9 -17 -8 -20 9 -20 11 0 22 -4 25 -9 6 -9 83 -15 296 -25 64 -3
97 -1 85 4 -17 7 -17 9 -2 9 18 1 25 21 7 21 -5 0 -9 3 -9 8 10 63 -21 99 -91
107 -41 4 -50 3 -35 -5 17 -8 15 -9 -10 -5 -121 18 -138 17 -187 -15z"/>
<path d="M3450 6595 c10 -12 7 -15 -14 -21 -14 -3 -26 -10 -26 -14 0 -5 -10
-11 -22 -13 -14 -3 -9 -5 15 -6 20 0 37 -5 37 -11 0 -14 -30 -28 -54 -24 -12
3 -15 2 -9 -2 10 -4 10 -9 -1 -19 -13 -13 -15 -73 -2 -93 4 -6 -5 -13 -21 -15
-16 -3 -3 -5 27 -5 30 0 66 -1 80 -2 21 -2 19 -3 -10 -10 -19 -5 -55 -7 -80
-5 -25 3 -36 2 -26 -1 12 -4 15 -9 8 -13 -7 -4 19 -6 56 -4 44 2 60 0 47 -6
-11 -5 -23 -6 -28 -4 -15 9 -67 -9 -67 -23 0 -17 54 -52 93 -61 17 -3 24 -9
17 -13 -7 -4 19 -30 66 -66 98 -75 95 -72 128 -117 29 -38 30 -61 1 -37 -12
10 -15 10 -15 -4 0 -18 -8 -20 -28 -7 -10 6 -10 10 3 21 22 19 18 33 -8 26
-16 -4 -39 6 -81 34 -64 44 -101 55 -46 15 39 -29 22 -35 -18 -7 -35 25 -92
44 -92 31 0 -5 6 -9 14 -9 12 0 31 -28 24 -36 -2 -1 -25 8 -51 22 -61 30 -66
30 -37 -1 12 -13 26 -23 29 -21 9 6 46 -23 39 -30 -3 -3 -24 4 -47 15 -22 12
-48 21 -58 20 -10 0 -5 -5 14 -12 30 -11 103 -69 103 -81 0 -3 -5 -6 -11 -6
-7 0 -18 -8 -25 -17 -8 -11 -13 -13 -14 -5 0 14 -36 16 -45 2 -3 -5 0 -7 8 -4
8 3 18 1 22 -5 3 -6 -1 -14 -10 -17 -14 -6 -14 -8 2 -19 15 -11 15 -15 4 -29
-11 -14 -11 -16 4 -16 12 0 16 -6 12 -20 -3 -11 -2 -18 2 -16 3 2 11 -7 18
-20 14 -30 3 -31 -23 -3 -10 11 -26 25 -35 29 -13 8 -15 5 -11 -16 2 -14 11
-28 19 -31 10 -4 11 -9 2 -19 -9 -11 -8 -14 5 -14 19 0 22 -16 4 -23 -9 -3 -6
-10 9 -21 14 -11 20 -22 16 -33 -4 -11 -3 -14 5 -9 8 4 10 2 6 -8 -3 -8 -1
-23 6 -33 9 -16 10 -15 5 7 -5 20 -4 22 5 10 10 -13 12 -13 17 -1 6 14 44 -51
42 -73 0 -6 -4 -1 -10 12 -5 13 -14 20 -20 16 -14 -8 -5 -55 27 -151 13 -39
24 -82 24 -96 0 -13 3 -26 6 -30 12 -11 14 -99 3 -119 -8 -15 -8 -19 0 -14 7
5 11 -2 11 -17 0 -13 9 -52 21 -86 11 -35 18 -70 16 -79 -3 -11 -5 -9 -6 6 0
13 -4 21 -8 19 -5 -3 -9 8 -10 25 -2 26 -43 122 -49 115 -5 -5 42 -152 58
-182 l17 -30 9 24 c8 22 11 17 25 -42 10 -37 31 -92 47 -122 17 -31 30 -62 30
-70 0 -9 9 -23 20 -32 11 -10 20 -22 20 -28 0 -5 16 -48 35 -94 19 -47 33 -87
30 -89 -2 -3 -10 7 -16 21 -7 15 -16 24 -22 20 -6 -3 -7 -1 -3 5 10 16 -4 64
-18 59 -6 -2 -10 -12 -8 -22 2 -10 -1 -14 -7 -10 -16 9 -13 45 3 45 11 0 12 6
2 33 -6 19 -19 42 -29 51 -9 10 -20 28 -23 42 -3 13 -9 24 -13 24 -3 0 -12 14
-19 30 -16 35 -32 39 -33 8 0 -13 -3 -17 -6 -10 -2 6 -10 12 -16 12 -15 0 -41
40 -32 48 3 4 11 0 16 -8 9 -12 10 -12 5 3 -3 10 -6 24 -6 30 0 7 -6 3 -12 -7
-10 -18 -11 -18 -29 5 -14 18 -19 20 -19 8 0 -27 30 -78 50 -84 11 -4 20 -10
20 -15 0 -5 -7 -7 -15 -4 -20 8 -19 2 5 -52 11 -24 23 -58 27 -74 3 -17 9 -30
14 -30 5 0 9 -12 9 -26 0 -23 -2 -25 -15 -14 -17 14 -17 14 -33 -15 -6 -11
-12 -14 -12 -7 0 12 -35 52 -46 52 -4 0 -4 -11 -2 -25 6 -30 -11 -34 -19 -5
-10 38 -18 20 -17 -40 0 -34 -3 -63 -8 -66 -4 -3 -8 4 -8 16 0 13 -4 19 -11
14 -6 -3 -9 -19 -5 -35 7 -37 -4 -37 -27 -1 -18 27 -18 27 -11 2 3 -14 8 -46
9 -71 1 -26 5 -51 9 -57 3 -6 0 -17 -8 -25 -8 -8 -12 -17 -9 -21 3 -3 1 -11
-4 -18 -6 -7 -13 -27 -16 -45 -4 -18 -18 -51 -33 -74 -14 -23 -24 -50 -21 -60
3 -10 -2 -20 -11 -24 -13 -5 -14 -8 -3 -14 10 -6 9 -10 -4 -15 -11 -4 -14 -12
-10 -26 4 -12 2 -20 -5 -20 -8 0 -10 -10 -8 -24 4 -18 1 -23 -10 -19 -11 5
-13 0 -8 -18 3 -13 3 -18 0 -11 -8 18 -24 15 -17 -3 3 -10 1 -15 -7 -13 -8 2
-18 -6 -24 -18 -6 -11 -17 -19 -24 -16 -6 2 -12 -2 -12 -10 0 -7 -9 -20 -20
-28 -11 -8 -20 -19 -20 -26 0 -6 -11 -16 -25 -22 -14 -6 -25 -16 -25 -22 0
-17 -26 -40 -45 -40 -9 0 -13 -4 -10 -10 8 -13 -1 -13 -28 1 -21 11 -21 11 -5
-7 9 -10 34 -28 55 -39 21 -10 58 -33 82 -49 29 -19 46 -25 49 -18 2 7 11 12
20 12 12 0 13 3 4 12 -18 18 -15 28 9 28 11 0 18 4 15 8 -2 4 0 14 6 22 8 13
9 12 5 -2 -3 -9 0 -19 8 -22 10 -3 12 0 9 12 -4 14 -3 13 6 -2 10 -15 9 -20
-1 -27 -8 -5 -9 -9 -3 -9 6 0 21 -18 33 -41 19 -33 27 -40 45 -35 11 3 25 6
29 6 4 0 2 10 -4 22 -24 44 -5 118 23 90 8 -8 8 -15 -1 -26 -8 -9 -10 -28 -5
-50 6 -37 18 -46 28 -23 4 6 4 -24 1 -67 -3 -43 -5 -89 -5 -101 0 -18 -5 -21
-31 -19 -52 4 -114 -36 -225 -143 -14 -14 -30 -21 -41 -17 -14 4 -15 3 -4 -4
10 -7 10 -11 1 -17 -8 -5 -16 -1 -22 9 -6 10 -21 16 -41 15 l-32 -2 35 -7 c19
-4 27 -8 17 -9 -10 0 -16 -5 -12 -11 3 -5 12 -7 20 -3 8 3 15 0 15 -6 0 -6 -7
-11 -16 -11 -8 0 -12 -5 -9 -10 8 -13 17 -8 123 76 15 11 36 23 47 26 11 3 28
9 38 13 14 6 17 2 17 -19 0 -14 -5 -26 -10 -26 -6 0 -5 -6 2 -14 14 -15 52 -6
96 22 12 8 22 10 22 5 0 -11 -196 -106 -413 -199 -112 -49 -152 -62 -165 -54
-10 5 -12 10 -4 10 6 0 12 8 12 17 0 15 -2 14 -14 -3 -9 -12 -11 -23 -5 -30 7
-8 -17 -23 -78 -49 -49 -21 -94 -42 -101 -48 -14 -11 -32 5 -32 31 0 7 -4 11
-8 8 -13 -8 -8 -76 5 -84 8 -5 2 -26 -20 -72 -20 -41 -33 -58 -35 -46 -2 10 5
24 15 32 17 14 17 14 -1 7 -17 -6 -18 -2 -12 42 9 57 16 76 25 71 4 -3 8 36 9
85 2 49 7 110 12 137 42 202 52 365 31 477 -18 92 -40 167 -61 202 -11 19 -31
68 -45 110 -23 71 -25 100 -5 88 5 -3 12 0 16 6 4 8 3 9 -4 5 -15 -9 -15 -3 0
29 6 14 17 25 25 25 7 0 13 3 13 8 0 7 73 42 88 42 4 0 -4 -9 -18 -20 -29 -22
-17 -25 45 -9 58 15 85 41 85 84 0 18 -3 40 -6 49 -11 30 -19 16 -16 -28 3
-37 0 -46 -23 -65 -29 -22 -55 -28 -55 -11 0 6 -15 10 -32 10 -49 0 -108 -12
-103 -20 7 -12 -88 16 -122 36 -18 11 -33 24 -33 30 0 7 -7 14 -15 18 -25 9
-17 -11 15 -37 17 -14 30 -30 30 -34 0 -13 55 -43 77 -43 11 0 22 -3 26 -6 10
-10 -64 -44 -95 -44 -24 0 -30 -5 -34 -29 -7 -34 -35 -42 -93 -28 -47 12 -79
2 -131 -42 -52 -44 -92 -66 -138 -76 -18 -3 -54 -24 -80 -44 -26 -21 -66 -50
-88 -64 -67 -41 -112 -89 -134 -139 l-21 -47 20 -39 c22 -43 62 -145 58 -148
-1 -1 -32 -15 -69 -32 -37 -17 -82 -41 -100 -55 -18 -13 -59 -35 -92 -48 -79
-32 -98 -58 -120 -170 -6 -29 -192 -279 -216 -289 -8 -4 -29 -14 -45 -23 -17
-8 -102 -34 -190 -57 -196 -51 -237 -63 -345 -106 -47 -18 -112 -40 -145 -48
-74 -17 -259 -69 -340 -95 l-60 -19 -3 -1221 -2 -1221 1504 0 1505 0 -10 33
c-8 28 -19 86 -36 197 -4 24 -8 30 -12 18 -3 -10 -5 53 -4 140 1 86 2 176 2
199 0 23 5 44 11 48 5 3 10 21 10 38 0 60 8 71 63 89 65 21 133 26 471 33
l269 6 -6 -36 c-3 -19 -2 -33 3 -30 4 3 11 -2 14 -11 9 -23 7 -31 -4 -14 -6
10 -9 -6 -7 -51 1 -37 4 -63 7 -59 3 4 6 -44 7 -107 1 -79 -2 -111 -9 -102 -7
10 -7 6 -2 -11 17 -52 -2 -263 -28 -312 -4 -10 -6 -29 -2 -43 l6 -25 420 0
c382 0 420 1 414 16 -4 11 -2 15 8 11 8 -3 17 1 20 9 3 8 13 14 22 14 31 0 7
25 -30 31 -59 10 -67 28 -9 22 61 -7 71 -15 66 -55 -3 -25 -2 -29 6 -18 6 8
11 25 11 38 0 14 4 21 11 16 7 -4 7 1 -1 16 -15 28 -5 38 17 18 16 -13 24 -14
50 -9 3 0 -2 10 -12 21 -14 16 -16 23 -7 32 10 10 17 10 31 1 14 -9 21 -9 30
0 15 15 14 23 -5 41 -12 12 -20 14 -36 5 -24 -13 -31 -8 -22 15 5 12 13 16 28
11 11 -3 28 -7 36 -8 8 -1 18 -9 22 -18 3 -9 16 -19 28 -22 20 -5 21 -4 5 19
-14 21 -14 24 0 24 35 0 39 -69 7 -118 -15 -22 -14 -25 17 -54 18 -17 38 -27
46 -24 18 7 20 -20 3 -28 -7 -3 67 -4 164 -3 126 1 181 6 190 15 6 6 21 12 31
12 15 0 18 5 14 22 -9 33 8 56 38 51 14 -3 25 -1 26 3 8 102 8 184 -1 189 -13
8 -13 45 0 45 16 0 14 1377 -2 1382 -10 4 -10 10 0 32 6 15 12 43 12 63 0 32
-2 35 -24 31 -34 -7 -45 3 -39 35 6 30 20 36 29 12 8 -20 34 -19 34 0 0 9 -9
25 -20 37 -22 24 -30 72 -8 50 7 -7 16 -12 21 -12 12 0 1 143 -12 169 -6 10
-6 23 0 32 13 21 11 63 -6 85 -21 28 -19 61 5 67 16 4 20 14 20 52 0 29 -6 52
-14 59 -17 14 -33 62 -17 52 6 -4 11 -16 11 -27 0 -10 5 -19 10 -19 6 0 10 24
10 54 0 30 -4 58 -10 61 -5 3 -10 14 -9 23 0 14 2 13 9 -3 5 -12 9 36 9 128 1
162 0 165 -61 133 -27 -14 -28 -14 -28 12 0 15 5 44 9 66 12 50 5 66 -29 66
-24 0 -28 -4 -25 -22 4 -20 3 -21 -11 -6 -12 12 -15 25 -10 44 5 17 10 23 14
17 5 -8 13 -9 22 -3 12 8 12 10 1 10 -8 0 -11 6 -7 16 3 8 2 12 -4 9 -6 -3
-10 -2 -10 4 0 5 10 11 23 13 19 3 22 9 22 53 0 52 -21 105 -43 105 -7 0 -18
-12 -24 -26 l-12 -25 -18 23 c-24 32 -23 41 11 67 21 16 27 28 24 44 -3 12 8
-3 23 -33 15 -30 31 -57 35 -58 5 -2 7 -8 3 -13 -3 -5 -1 -9 4 -9 13 0 55
-157 46 -172 -4 -6 -3 -8 4 -4 12 7 36 -56 29 -77 -2 -6 -7 6 -12 28 l-8 40
-12 -35 c-21 -54 -19 -79 6 -77 11 1 25 9 30 18 11 21 6 287 -6 313 -6 14 -5
17 4 12 9 -6 11 11 9 71 -2 63 -6 78 -20 81 -9 2 -18 -4 -21 -15 -2 -10 -2 0
-1 22 3 28 1 34 -4 20 -8 -18 -9 -17 -14 7 -3 15 -1 29 4 30 6 2 -3 18 -20 35
-16 18 -28 34 -26 36 2 1 -7 3 -19 4 -12 0 -17 -1 -10 -4 6 -2 20 -34 32 -71
43 -140 91 -325 90 -346 -1 -19 -2 -19 -9 4 l-8 25 -1 -24 c-2 -44 -10 -16
-16 54 -4 38 -11 75 -16 81 -9 11 -24 73 -34 139 -7 44 -15 65 -25 65 -18 0
-18 -31 1 -105 11 -43 18 -79 16 -82 -2 -2 -12 27 -21 64 -20 83 -36 123 -47
123 -5 0 -9 6 -9 14 0 8 -7 16 -15 20 -8 3 -15 12 -15 21 0 8 -4 15 -10 15 -5
0 -10 7 -10 15 0 24 19 17 26 -9 5 -21 34 -46 34 -30 0 21 -35 79 -66 109 -23
23 -33 40 -27 46 5 5 7 25 5 45 -3 25 -7 32 -13 23 -7 -11 -9 -10 -9 3 0 9 -6
23 -14 31 -15 15 -46 82 -46 99 0 24 27 -14 44 -62 12 -32 22 -47 26 -40 5 8
12 -2 20 -26 6 -22 15 -48 20 -59 4 -11 13 -35 20 -52 7 -18 17 -33 22 -33 6
0 7 8 3 18 -29 74 -55 171 -55 206 0 30 -3 37 -10 26 -5 -8 -10 -10 -11 -5 0
6 -4 1 -9 -10 -7 -15 -9 -16 -9 -4 -1 19 24 43 37 35 5 -3 14 5 20 18 9 21 7
28 -13 50 -21 22 -24 23 -28 8 -4 -15 -5 -14 -6 2 0 11 -8 28 -18 38 -9 10
-11 18 -5 18 6 0 16 -8 21 -17 10 -17 10 -17 11 0 0 19 -49 96 -62 97 -12 0 3
-28 18 -34 17 -6 19 -36 2 -36 -6 0 -8 3 -5 7 4 3 -3 16 -16 27 -12 12 -24 30
-25 41 -2 10 -13 31 -24 44 l-20 26 7 -30 c4 -17 14 -43 22 -60 28 -57 36 -81
22 -67 -19 18 -27 15 -32 -10 -3 -16 -4 -14 -2 5 1 15 -3 27 -9 27 -6 0 -5 5
2 12 16 16 15 33 -1 20 -10 -8 -13 -6 -13 8 0 10 5 16 10 13 6 -4 6 1 1 13 -4
10 -10 32 -14 48 -7 30 -31 49 -31 24 0 -25 -29 -16 -42 14 -7 15 -16 28 -20
28 -8 0 -38 54 -38 67 0 4 5 1 11 -7 9 -13 10 -13 6 0 -2 8 -10 14 -16 12 -7
-1 -17 11 -22 27 -6 16 -17 32 -25 35 -22 8 -17 -32 10 -78 27 -47 44 -126 27
-126 -6 0 -11 11 -11 24 0 14 -6 31 -12 38 -35 37 -56 76 -47 85 14 14 0 43
-17 36 -8 -3 -14 0 -14 6 0 6 4 11 9 11 5 0 11 10 14 23 6 22 6 22 -9 2 -15
-19 -15 -18 -8 10 7 28 6 29 -10 16 -16 -13 -17 -12 -11 15 5 19 4 25 -3 16
-7 -11 -11 -8 -15 10 -4 13 -28 46 -54 74 -26 27 -60 63 -74 79 -23 26 -78 77
-169 155 -81 70 -182 100 -343 100 -125 0 -130 4 -96 77 27 57 50 207 42 266
-12 81 -6 226 10 238 10 7 11 85 3 159 -3 30 -9 78 -12 106 -3 29 -15 80 -27
115 -25 72 -24 109 1 109 15 0 15 2 2 11 -11 7 9 8 66 4 45 -4 84 -3 87 2 3 4
-13 7 -36 6 -30 -2 -36 0 -22 5 16 8 14 10 -14 15 -19 4 -49 7 -67 7 -27 0
-34 4 -34 19 0 11 5 23 10 26 17 11 11 28 -7 21 -10 -4 -14 -4 -11 0 4 3 -4
36 -18 73 -14 36 -27 73 -28 81 -6 31 -18 49 -37 55 -10 4 -19 13 -19 21 0 11
-6 13 -20 9 -13 -4 -22 -1 -26 9 -3 9 -10 16 -15 16 -5 0 -32 14 -60 32 l-51
31 27 14 c37 20 23 29 -15 10 -29 -15 -33 -15 -63 3 -22 14 -26 20 -14 20 9 0
17 5 17 10 0 6 9 10 20 10 11 0 20 -4 20 -10 0 -5 -4 -10 -10 -10 -5 0 -10 -4
-10 -10 0 -6 10 -5 26 2 24 11 25 13 8 25 -10 7 -27 13 -38 13 -15 0 -17 3 -8
8 9 6 5 12 -13 22 -14 8 -23 20 -21 27 4 9 -3 13 -20 13 -13 0 -27 7 -30 15
-4 8 -12 15 -20 15 -27 0 -14 20 14 21 18 1 21 3 9 6 -11 3 -16 10 -13 20 5
11 1 13 -15 8 -14 -5 -19 -3 -15 3 8 13 -55 52 -84 52 -19 0 -20 -3 -10 -15z
m1377 -2519 c10 -4 12 2 7 22 -4 21 -3 24 5 12 6 -8 11 -35 11 -60 0 -49 31
-112 52 -108 7 2 12 -3 11 -9 -2 -7 7 -14 20 -15 12 0 29 -1 37 -2 8 -1 16 -9
18 -19 2 -10 14 -22 26 -27 14 -5 27 -24 36 -51 8 -23 22 -50 32 -59 12 -11
16 -24 12 -35 -5 -13 -15 -2 -39 50 -18 37 -44 78 -59 91 l-26 25 4 -53 c3
-29 9 -64 14 -78 5 -14 7 -31 4 -39 -3 -8 0 -11 7 -7 6 4 11 1 11 -8 0 -20
-19 -20 -43 -1 -11 7 -25 11 -33 8 -10 -4 -14 4 -14 28 0 24 3 30 9 20 5 -8
17 -16 26 -17 11 -2 13 1 7 9 -5 7 -13 27 -17 45 -3 17 -11 32 -16 32 -5 0
-14 10 -20 23 -6 13 -20 27 -32 32 -13 6 -25 23 -28 40 -6 26 -15 17 -9 -10 1
-5 -5 -4 -12 3 -7 7 -13 33 -12 58 0 24 -2 44 -5 44 -4 0 -7 10 -8 23 -1 12
-4 38 -7 57 -5 34 -4 34 6 8 7 -15 18 -30 25 -32z"/>
<path d="M3130 6569 c-91 -21 -91 -21 -85 -39 4 -12 -1 -19 -14 -23 -14 -3
-18 -11 -14 -26 5 -19 1 -21 -33 -21 -36 0 -37 -1 -18 -15 19 -15 19 -15 -5
-35 -15 -13 -32 -18 -50 -14 -21 4 -20 2 8 -11 l34 -15 -21 -21 c-21 -19 -23
-19 -47 -3 -14 9 -28 14 -32 10 -3 -3 -2 -6 3 -6 18 -1 46 -29 39 -40 -5 -8
-11 -8 -21 1 -24 19 -27 2 -5 -20 40 -40 22 -50 -21 -13 -30 25 -21 -5 9 -33
34 -31 30 -31 -114 -4 -89 17 -125 20 -180 13 l-68 -8 110 -7 c123 -7 175 -17
175 -31 0 -6 7 -8 15 -4 8 3 15 1 15 -5 0 -7 -10 -8 -27 -4 -41 11 -276 5
-288 -7 -7 -7 -3 -8 14 -3 13 4 82 4 155 -1 83 -5 120 -10 101 -14 -30 -7 -25
-13 20 -23 18 -4 18 -5 -2 -6 -33 -2 -39 -21 -6 -21 26 -1 27 -2 10 -14 -13
-10 -15 -15 -5 -19 7 -2 -7 -9 -32 -15 l-45 -11 50 4 c28 2 42 1 33 -1 -10 -3
-18 -10 -18 -15 0 -13 -64 -11 -95 3 -20 9 -28 9 -38 -1 -9 -10 -8 -11 6 -6
10 4 17 2 17 -4 0 -6 -3 -11 -7 -12 -5 0 -17 -2 -28 -3 -11 -1 -29 -8 -40 -15
-18 -11 -17 -11 10 -7 17 3 48 8 70 12 22 3 48 8 59 11 12 3 16 1 12 -6 -4 -6
0 -11 11 -12 14 0 14 -2 -4 -9 -27 -11 -30 -27 -5 -33 13 -4 14 -5 1 -6 -8 0
-37 -12 -65 -26 -46 -23 -47 -24 -14 -18 19 3 41 11 48 16 15 12 79 14 89 3 4
-3 -1 -6 -9 -6 -8 0 -32 -15 -52 -34 -20 -19 -46 -37 -58 -39 -20 -4 -20 -4 4
-6 15 0 29 -5 32 -10 7 -10 -65 -34 -105 -34 -24 0 -27 -2 -14 -10 11 -6 33
-3 67 8 48 15 77 13 49 -4 -10 -7 -10 -10 -1 -16 13 -8 32 13 26 30 -1 6 11
15 28 20 31 10 39 33 9 27 -8 -2 -12 1 -8 7 8 14 35 14 35 0 0 -6 9 -8 20 -4
14 4 22 1 27 -12 8 -21 33 -48 33 -36 0 4 5 0 10 -9 9 -15 94 -78 106 -78 8 0
4 26 -8 53 -7 15 -16 27 -20 27 -4 0 -5 7 -1 15 3 9 2 15 -3 13 -11 -4 -14 5
-14 32 0 11 4 20 10 20 5 0 7 -7 4 -15 -4 -9 0 -15 10 -15 9 0 16 5 16 11 0
23 32 -16 62 -75 31 -63 68 -116 68 -100 1 13 -94 198 -102 202 -5 2 -8 8 -8
13 0 17 20 9 43 -18 12 -14 32 -35 45 -46 12 -12 22 -25 22 -30 0 -6 15 -29
34 -52 19 -23 43 -60 53 -83 9 -23 23 -44 30 -46 13 -6 7 20 -11 43 -9 11 -8
13 4 9 8 -2 24 -30 34 -61 11 -31 23 -57 28 -57 5 0 8 7 6 16 -2 10 3 19 10
21 6 3 12 0 12 -6 0 -6 4 -11 9 -11 5 0 7 10 4 23 -3 15 4 9 21 -18 15 -22 29
-51 32 -65 3 -14 10 -36 14 -50 11 -34 12 -2 1 65 -7 39 -6 52 5 58 8 4 14 15
14 24 0 11 -5 9 -19 -8 l-18 -23 -13 25 c-7 13 -20 32 -29 41 -9 9 -34 43 -56
75 -22 31 -62 79 -90 107 -41 40 -46 48 -25 42 24 -7 24 -6 -5 18 -16 14 -34
26 -39 26 -4 0 -6 7 -3 14 4 9 1 13 -6 10 -16 -6 -39 43 -23 50 6 2 4 5 -4 5
-8 0 -21 -3 -29 -8 -14 -9 -28 0 -105 73 -35 33 -37 37 -16 31 14 -4 35 -16
46 -27 20 -18 39 -25 73 -27 7 -1 11 -7 8 -15 -4 -10 -1 -13 9 -9 8 3 21 0 29
-7 8 -7 15 -9 15 -6 0 4 20 -5 43 -19 48 -28 73 -22 30 7 l-28 18 45 -6 c43
-5 44 -5 24 10 -30 21 -199 106 -212 106 -6 0 -14 5 -17 10 -4 6 7 10 27 9 18
-1 49 1 68 5 25 4 29 4 15 -3 -18 -8 -17 -9 10 -17 16 -4 35 -13 42 -19 14
-14 102 -30 111 -20 4 4 -5 17 -20 30 -17 15 -23 25 -15 28 7 3 0 8 -15 12
-16 4 -28 11 -28 17 0 5 -6 8 -12 7 -21 -4 -76 11 -135 37 -30 13 -58 22 -63
19 -5 -3 -11 -1 -15 5 -9 15 45 32 85 26 l35 -5 -32 14 c-42 19 -42 26 -1 14
18 -5 39 -9 47 -9 27 0 0 15 -47 26 -46 11 -46 12 -12 13 l35 2 -25 14 c-23
13 -19 14 45 10 64 -4 67 -3 33 7 -21 6 -38 18 -38 26 0 11 8 13 38 7 99 -18
99 -18 77 0 -15 12 -36 15 -79 13 -34 -2 -61 1 -62 7 -2 6 16 19 39 31 26 13
41 27 41 37 -1 11 6 17 20 17 19 1 19 2 4 13 -15 12 -15 14 4 26 16 10 17 15
8 27 -7 8 -15 13 -19 13 -3 -1 -22 -5 -41 -10z"/>
<path d="M2229 6399 c-1 -8 -1 -17 0 -22 1 -4 -9 -11 -22 -16 -30 -12 -127
-100 -127 -116 0 -7 -15 -25 -32 -39 -48 -39 -118 -110 -118 -120 0 -5 -11
-24 -25 -42 -14 -18 -24 -39 -23 -46 2 -6 -3 -12 -11 -13 -8 0 -19 -16 -24
-35 -5 -19 -15 -42 -23 -51 -8 -8 -14 -21 -14 -27 0 -6 -9 -28 -21 -48 -11
-20 -18 -43 -15 -51 3 -8 1 -35 -5 -60 -9 -34 -9 -47 0 -52 14 -9 33 -73 23
-80 -11 -9 -12 -61 -1 -61 6 0 7 -5 4 -11 -4 -6 -13 -8 -21 -5 -8 3 -14 0 -13
-7 3 -25 -1 -38 -11 -32 -6 4 -10 -11 -9 -37 1 -30 3 -37 7 -21 12 40 30 11
28 -44 -1 -28 2 -47 5 -41 4 7 9 5 12 -3 4 -8 5 14 4 48 -1 34 2 65 6 69 6 6
11 -32 10 -73 -1 -7 4 -10 9 -7 6 4 8 -1 5 -12 -3 -11 -8 -30 -12 -44 -5 -23
-5 -23 6 -6 7 11 12 40 11 64 0 25 8 65 19 89 10 25 16 49 13 54 -3 5 6 30 20
55 14 26 26 53 26 60 0 7 9 18 20 24 10 6 22 26 26 45 3 19 11 35 16 35 6 0 8
-9 5 -20 -3 -11 -3 -20 0 -20 10 0 32 35 32 50 0 10 -3 8 -9 -5 -8 -19 -9 -19
-9 2 -1 12 6 28 14 37 8 8 15 20 15 26 0 6 9 14 20 18 15 5 17 11 9 22 -8 11
-12 12 -16 3 -2 -7 -9 -13 -15 -13 -6 0 -3 9 7 20 19 20 41 28 30 10 -3 -5 -1
-10 4 -10 6 0 11 9 11 20 0 11 4 20 8 20 5 0 18 9 31 21 12 11 28 18 36 15 8
-3 17 -1 20 3 9 16 80 48 94 43 12 -4 12 -3 0 10 -14 16 -17 15 -76 -16 -18
-9 -33 -14 -33 -10 0 5 -5 3 -12 -4 -7 -7 -20 -12 -30 -12 -10 0 -18 -5 -18
-11 0 -7 -10 -9 -27 -5 -17 4 -23 3 -15 -2 17 -12 -11 -37 -32 -29 -10 4 -13
1 -10 -7 5 -14 -54 -81 -64 -72 -2 3 8 22 23 42 20 27 24 38 15 44 -9 5 -9 9
-1 14 6 4 15 5 20 2 12 -8 32 18 29 35 -2 8 7 15 21 17 14 2 21 0 17 -6 -11
-18 9 -21 38 -6 16 7 35 14 42 14 8 0 14 5 14 10 0 6 3 9 8 8 4 -1 23 8 42 20
19 12 28 22 21 22 -8 0 10 12 40 26 162 77 199 98 189 108 -8 8 -13 7 -19 -3
-5 -8 -16 -11 -29 -7 -11 4 -23 2 -27 -4 -3 -5 -16 -10 -28 -10 -18 0 -20 -2
-7 -11 12 -9 11 -10 -5 -6 -11 2 -26 -2 -33 -10 -7 -7 -22 -13 -33 -13 -13 0
-18 -4 -13 -11 5 -9 -1 -10 -22 -5 -16 4 -24 3 -17 -2 7 -4 -10 -8 -41 -8 -30
0 -61 -6 -70 -13 -8 -7 -21 -11 -27 -9 -15 5 66 54 122 73 23 8 57 15 75 15
19 0 34 5 34 10 0 6 8 10 18 10 10 0 22 4 28 9 5 5 20 11 34 14 22 4 22 4 -5
5 -16 1 -48 -5 -70 -13 -22 -8 -50 -15 -62 -15 -12 0 -25 -4 -28 -10 -9 -15
-34 -12 -52 5 -14 14 -13 15 8 11 27 -7 115 35 112 52 -3 11 47 31 81 33 17 1
18 2 3 6 -16 4 -16 6 3 21 20 16 19 17 -32 14 -49 -3 -52 -3 -33 11 19 15 18
15 -20 13 -22 -2 -29 -1 -15 1 14 3 27 9 30 14 9 14 156 31 282 33 73 1 109 4
95 9 -38 14 -245 8 -303 -9 -30 -8 -60 -13 -67 -11 -7 3 -5 6 6 6 9 1 17 6 17
11 0 6 12 10 28 10 20 0 23 3 13 9 -11 7 -9 10 10 14 13 2 1 5 -27 6 -28 0
-72 4 -98 7 -35 5 -46 4 -47 -7z"/>
<path d="M2089 5739 c-9 -17 -13 -19 -20 -8 -6 10 -9 8 -9 -9 0 -27 -77 -184
-95 -194 -7 -5 -11 -16 -8 -27 3 -10 0 -22 -6 -25 -6 -4 -11 -17 -12 -29 0
-13 -3 -16 -6 -9 -13 33 -86 -137 -84 -195 1 -15 -5 -23 -17 -23 -13 0 -14 -2
-4 -9 11 -7 10 -21 -7 -76 -12 -37 -21 -76 -21 -86 0 -10 -8 -27 -18 -37 -22
-22 -24 -37 -23 -177 0 -70 -3 -105 -9 -95 -5 8 -10 12 -12 10 -8 -10 14 -150
23 -150 6 0 8 15 5 33 -11 67 -11 80 3 85 8 2 11 0 8 -5 -8 -13 28 -263 48
-330 8 -29 21 -76 29 -104 8 -27 20 -57 26 -65 7 -7 10 -25 8 -38 -4 -19 -1
-23 16 -20 14 3 11 0 -8 -9 -17 -9 -24 -17 -18 -21 7 -4 21 -2 33 4 11 7 23 9
26 6 3 -3 -3 -9 -13 -13 -10 -3 -22 -11 -26 -16 -3 -6 -17 -2 -32 10 -14 11
-22 24 -18 28 4 5 1 5 -6 1 -8 -5 -21 0 -34 14 -11 11 -31 25 -45 31 -13 5
-21 14 -18 20 4 6 1 9 -7 7 -18 -4 -93 53 -93 72 0 10 -9 14 -26 13 -17 -1
-40 10 -65 33 -21 18 -43 34 -47 34 -5 0 -5 5 -1 12 4 7 3 8 -4 4 -7 -4 -30 7
-52 23 -22 17 -59 45 -82 63 -36 28 -39 29 -23 8 27 -35 139 -122 311 -240 82
-57 160 -113 174 -126 26 -23 49 -27 153 -25 57 1 57 1 43 24 -8 12 -25 56
-39 97 -58 171 -78 319 -59 434 7 45 19 87 27 95 15 15 50 7 40 -9 -4 -6 1 -7
11 -3 11 4 15 3 11 -4 -4 -6 7 -23 24 -38 25 -20 34 -23 40 -13 5 7 9 9 9 4 0
-6 7 -1 15 10 14 19 14 18 15 -3 0 -13 -5 -23 -11 -23 -5 0 -7 -5 -3 -11 4 -8
9 -7 15 2 7 10 11 11 17 2 4 -6 28 -14 53 -18 36 -5 54 -2 87 15 23 12 42 26
42 30 0 5 -25 6 -57 3 -37 -4 -54 -3 -50 4 4 6 34 13 67 17 58 7 60 8 60 36 0
16 -4 31 -9 34 -5 3 -7 16 -5 29 4 20 4 20 -4 2 -8 -18 -10 -18 -26 7 -17 26
-88 65 -159 88 -20 6 -35 16 -32 21 4 5 -1 9 -9 9 -9 0 -16 -6 -16 -12 0 -10
-2 -10 -8 -1 -4 6 -20 16 -35 22 -28 11 -36 38 -16 58 15 15 169 -19 169 -39
0 -4 10 -8 23 -8 16 0 18 -3 9 -9 -11 -7 -11 -9 2 -14 9 -4 16 -2 16 4 0 6 4
8 8 5 5 -3 8 -19 7 -35 -1 -17 3 -32 10 -34 7 -3 10 6 9 25 -1 20 1 26 9 20
14 -10 77 -15 77 -6 0 13 -65 65 -107 86 -24 12 -43 25 -43 30 0 4 -6 8 -12 8
-7 0 -43 15 -79 33 -65 32 -66 32 -81 12 -9 -11 -19 -17 -23 -13 -5 4 -2 14 5
23 11 13 10 15 -2 10 -17 -7 -42 -71 -33 -85 4 -6 0 -22 -9 -35 -10 -16 -12
-25 -4 -27 7 -3 5 -9 -5 -20 -9 -8 -22 -37 -30 -64 -9 -27 -20 -65 -26 -84
l-11 -35 6 35 c17 112 18 110 -6 60 -12 -25 -22 -62 -23 -84 -1 -21 -3 -33 -5
-27 -6 17 -20 13 -25 -6 -2 -10 -3 -2 -1 17 l3 35 -15 -28 c-8 -15 -12 -31
-10 -36 3 -5 -1 -15 -10 -22 -13 -11 -14 -9 -9 12 3 13 7 40 9 59 2 19 7 43
11 54 5 11 3 21 -5 26 -7 4 -9 13 -6 19 4 6 10 9 14 7 4 -2 16 2 27 11 20 15
20 15 0 11 -18 -3 -20 3 -22 52 -1 35 4 61 12 70 8 9 17 35 21 58 4 23 10 45
15 48 4 2 4 16 -1 30 -7 17 -5 37 6 67 8 23 21 66 28 94 7 29 18 58 23 65 6 7
13 26 17 42 11 44 100 232 148 314 11 17 15 32 9 32 -6 0 -15 -10 -22 -21z
m53 -910 c-8 -77 68 -118 118 -64 30 32 48 32 56 -1 10 -38 -8 -45 -110 -43
-80 2 -92 4 -118 27 -49 44 -29 122 31 122 25 0 26 -2 23 -41z"/>
<path d="M2928 4938 c-2 -3 -32 -8 -68 -9 -56 -2 -149 -16 -158 -24 -1 -1 2
-14 7 -27 8 -22 15 -25 50 -23 23 1 41 -1 41 -6 0 -4 3 -16 7 -26 3 -10 2 -15
-2 -10 -12 10 -45 -22 -45 -44 0 -10 -7 -22 -16 -27 -14 -8 -14 -11 2 -27 17
-17 17 -17 -3 -11 l-22 7 20 -40 c10 -22 19 -46 19 -54 0 -18 49 -63 83 -76
45 -17 85 -14 97 9 9 17 8 20 -12 21 -13 0 -45 11 -73 25 -27 14 -39 22 -25
19 14 -4 39 -10 57 -14 17 -5 53 -5 79 0 26 5 50 7 52 4 3 -3 -2 -5 -11 -5 -9
0 -17 -5 -17 -11 0 -6 7 -9 15 -5 8 3 15 1 15 -4 0 -6 -10 -10 -22 -11 -14 0
-17 -3 -9 -6 11 -4 9 -9 -8 -17 -19 -11 -17 -12 19 -13 48 -2 92 15 144 56 21
17 45 31 52 31 28 0 85 34 79 48 -3 7 -5 19 -5 26 0 14 -70 56 -93 56 -9 0
-29 12 -46 26 -27 22 -31 23 -31 8 0 -16 -1 -16 -16 2 -8 10 -13 13 -9 7 3 -7
1 -13 -4 -13 -6 0 -11 10 -11 22 0 20 -2 20 -15 8 -18 -19 -140 -15 -128 3 14
23 13 47 -2 47 -21 0 -19 18 3 21 70 8 204 -1 233 -15 18 -9 34 -15 35 -13 10
10 -23 67 -47 81 -29 17 -54 22 -29 6 12 -8 11 -10 -7 -10 -13 0 -23 4 -23 10
0 11 -148 9 -152 -2z m-46 -206 c-5 -39 39 -92 78 -92 34 0 80 35 80 60 0 29
17 33 40 10 24 -24 16 -47 -25 -74 -39 -26 -161 -24 -215 4 -35 18 -41 25 -38
48 2 19 14 33 43 49 22 13 40 23 41 23 0 0 -1 -13 -4 -28z"/>
<path d="M1495 4610 c-76 -8 -266 -24 -495 -41 -80 -6 -163 -13 -185 -15 -22
-3 -65 -6 -95 -9 -30 -2 -140 -11 -245 -20 -215 -18 -231 -20 -373 -30 -56 -5
-102 -12 -102 -18 0 -5 21 -7 53 -3 28 3 86 8 127 11 225 17 835 67 960 80 80
8 235 21 345 30 110 9 205 18 210 20 17 6 -127 2 -200 -5z"/>
<path d="M0 4171 c0 -71 4 -111 11 -111 19 0 237 59 272 74 19 8 60 19 90 26
32 6 58 18 61 26 4 11 0 15 -17 13 -25 -3 -80 13 -152 46 -37 17 -78 25 -157
30 l-108 7 0 -111z"/>
<path d="M1135 4193 c-30 -7 -45 -32 -45 -76 l0 -40 -42 6 c-26 4 -50 15 -65
31 -23 25 -43 34 -43 19 0 -5 28 -41 61 -81 73 -88 114 -111 163 -89 17 8 41
18 53 21 13 4 24 18 27 34 8 41 12 160 5 166 -8 8 -89 14 -114 9z"/>
<path d="M5197 3884 c-3 -3 -3 -13 0 -22 4 -9 2 -13 -4 -9 -13 8 -23 -14 -23
-50 0 -28 38 -163 50 -176 4 -5 10 -1 13 7 4 9 1 16 -5 16 -6 0 -8 3 -5 6 4 4
13 1 22 -6 12 -10 16 -9 21 4 6 16 24 13 24 -5 0 -6 -4 -8 -9 -4 -5 3 -12 1
-16 -5 -3 -6 1 -13 9 -16 9 -3 13 -11 9 -17 -3 -5 -2 -7 3 -4 13 7 11 45 -4
80 -7 16 -10 32 -7 37 3 5 1 11 -5 15 -5 3 -10 11 -10 16 0 6 6 7 13 3 8 -6 8
-3 -1 9 -8 9 -11 25 -7 36 5 16 3 20 -9 15 -12 -4 -15 -2 -10 9 3 8 0 18 -7
23 -8 5 -10 3 -4 -6 5 -9 4 -11 -3 -6 -7 4 -12 16 -12 26 0 20 -13 33 -23 24z"/>
<path d="M5270 3789 c0 -6 6 -9 14 -6 10 4 12 -4 8 -38 -3 -32 2 -56 21 -97
27 -57 49 -130 46 -151 -1 -6 3 -25 9 -40 7 -16 12 -32 12 -37 0 -5 4 -11 9
-14 4 -3 9 64 9 148 l1 154 -30 12 c-16 7 -29 18 -29 24 0 16 -42 56 -58 56
-7 0 -12 -5 -12 -11z"/>
</g>
</svg>
